<?xml version="1.0" encoding="utf-8"?>
<!-- Svg Vector Icons : http://www.onlinewebfonts.com/icon -->
<!DOCTYPE svg PUBLIC "-//W3C//DTD SVG 1.1//EN" "http://www.w3.org/Graphics/SVG/1.1/DTD/svg11.dtd">
<svg version="1.1" xmlns="http://www.w3.org/2000/svg" xmlns:xlink="http://www.w3.org/1999/xlink" x="0px" y="0px" viewBox="0 0 1000 1000" enable-background="new 0 0 1000 1000" xml:space="preserve">
<metadata> Svg Vector Icons : http://www.onlinewebfonts.com/icon </metadata>
<g><path d="M767.3,955.7c-30.6,0-59.5-5.8-86.8-17.5c-27.3-11.6-51.1-27.6-71.5-48c-20.4-20.4-36.4-44.2-48-71.5c-11.6-27.3-17.5-56.2-17.5-86.8c0-30.6,5.8-59.5,17.5-86.8c11.6-27.3,27.7-50.9,48-70.9c20.4-20,44.2-35.8,71.5-47.5c27.3-11.6,56.2-17.5,86.8-17.5c30.6,0,59.5,5.8,86.8,17.5c27.3,11.6,50.9,27.5,70.9,47.5c20,20,35.8,43.7,47.5,70.9c11.6,27.3,17.5,56.2,17.5,86.8c0,30.6-5.8,59.5-17.5,86.8c-11.6,27.3-27.5,51.1-47.5,71.5c-20,20.4-43.7,36.4-70.9,48C826.8,949.8,797.9,955.7,767.3,955.7L767.3,955.7z M877.6,695.9h-80.8v-75.3c0-10.2-3.3-18.9-9.8-26.2c-6.5-7.3-14.9-10.9-25.1-10.9c-10.2,0-18.2,3.6-24,10.9c-5.8,7.3-8.7,16-8.7,26.2v75.3h-70.9c-10.2,0-18.9,3.6-26.2,10.9c-7.3,7.3-10.9,16-10.9,26.2s3.6,17.8,10.9,22.9c7.3,5.1,16,7.6,26.2,7.6h70.9v77.5c0,10.2,2.9,18.9,8.7,26.2c5.8,7.3,13.8,10.9,24,10.9c10.2,0,18.6-3.6,25.1-10.9c6.5-7.3,9.8-16,9.8-26.2v-77.5h80.8v2.2c10.2,0,18.9-2.9,26.2-8.7c7.3-5.8,10.9-13.8,10.9-24s-3.6-18.9-10.9-26.2C896.5,699.5,887.8,695.9,877.6,695.9L877.6,695.9z M608,424.2c-2.9,11.6-5.8,22.2-8.7,31.6c-2.9,8-6.5,16.2-10.9,24.6c-4.4,8.4-9.1,14.7-14.2,19.1c-6.5,5.1-11.1,10.6-13.6,16.4c-2.5,5.8-4.7,11.8-6.5,18c-1.8,6.2-3.8,12.5-6,19.1c-2.2,6.5-5.8,13.1-10.9,19.6c-16.7,21.8-29.3,42.9-37.7,63.3c-8.4,20.4-14.2,40-17.5,58.9c-3.3,18.9-4.2,37.7-2.7,56.2c1.5,18.6,4.4,36.6,8.7,54c2.9,13.1,7.3,26.7,13.1,40.9c5.8,14.2,14.4,28.7,25.6,43.7c11.3,14.9,25.6,29.5,43.1,43.7c17.5,14.2,39.3,27.8,65.5,40.9c-17.5,3.6-37.8,6.9-61.1,9.8c-19.6,2.2-43.8,4.2-72.6,6c-28.7,1.8-61.7,2.7-98.8,2.7c-18.9,0-40.9-0.7-66-2.2c-25.1-1.5-50.9-3.3-77.5-5.5c-26.6-2.2-52.8-4.7-78.6-7.6c-25.8-2.9-49.5-6-70.9-9.3c-21.5-3.3-39.7-6.7-54.6-10.4c-14.9-3.6-24.2-6.9-27.8-9.8c-6.5-5.8-11.6-22-15.3-48.6c-3.6-26.6-2.5-61.3,3.3-104.2c3.6-24,13.3-42.4,28.9-55.1c15.6-12.7,34-22.7,55.1-30c21.1-7.3,43.1-14,66-20.2c22.9-6.2,43.1-14.7,60.6-25.6c13.8-8.7,24.4-16.9,31.6-24.6c7.3-7.6,12.4-15.5,15.3-23.5c2.9-8,4.4-16.4,4.4-25.1c0-8.7-0.4-18.2-1.1-28.4c-1.5-15.3-6.7-27.3-15.8-36c-9.1-8.7-18.7-17.5-28.9-26.2c-5.8-4.4-10.9-10.9-15.3-19.6c-4.4-8.7-8-17.1-10.9-25.1c-3.6-9.5-6.5-20-8.7-31.6c-5.1-1.5-9.8-3.6-14.2-6.5c-3.6-2.9-7.6-7.3-12-13.1c-4.4-5.8-8.4-14.5-12-26.2c-3.6-10.9-4.9-21.1-3.8-30.6c1.1-9.5,3.1-17.5,6-24c2.9-8,6.9-14.9,12-20.7c0-24.7,1.5-49.5,4.4-74.2c2.9-21.1,7.5-43.7,13.6-67.7c6.2-24,16.2-45.5,30-64.4c13.1-18.2,27.1-33.1,42-44.7C277.5,40.3,293,31.2,309,24.7c16-6.6,32-11.1,48-13.6c16-2.5,31.3-3.8,45.8-3.8c18.9,0,37.1,2.2,54.6,6.6C474.9,18.1,491,24,506,31.2c14.9,7.3,28.2,15.5,39.8,24.6c11.6,9.1,21.1,18.4,28.4,27.8c16.7,21.1,28.9,44.4,36.6,69.8c7.6,25.5,13.3,49.5,16.9,72c3.6,26.2,5.1,52.4,4.4,78.6c4.4,3.6,8,8,10.9,13.1c2.9,4.4,5.1,10.2,6.5,17.5c1.5,7.3,1.5,16.4,0,27.3c-1.5,13.8-4.4,24.7-8.7,32.7c-4.4,8-9.1,14.2-14.2,18.6C620.7,418.3,614.6,422,608,424.2L608,424.2z"/></g>
</svg>